<svg xmlns="http://www.w3.org/2000/svg" viewBox="0 0 200 200" width="200" height="200">
  <!-- Background circle -->
  <circle cx="100" cy="100" r="95" fill="#1a5490" stroke="#0d2a47" stroke-width="2"/>
  
  <!-- House shape -->
  <g transform="translate(50, 55)">
    <!-- Roof -->
    <polygon points="50,0 100,40 0,40" fill="#e8b923" stroke="#1a5490" stroke-width="2"/>
    
    <!-- House body -->
    <rect x="10" y="40" width="80" height="70" fill="#ffffff" stroke="#1a5490" stroke-width="2"/>
    
    <!-- Door -->
    <rect x="35" y="80" width="30" height="40" fill="#1a5490" stroke="#0d2a47" stroke-width="1.5"/>
    
    <!-- Door handle/key -->
    <circle cx="63" cy="100" r="4" fill="#e8b923"/>
    
    <!-- Windows -->
    <rect x="15" y="50" width="15" height="15" fill="#87ceeb" stroke="#1a5490" stroke-width="1.5"/>
    <line x1="22.5" y1="50" x2="22.5" y2="65" stroke="#1a5490" stroke-width="1"/>
    <line x1="15" y1="57.5" x2="30" y2="57.5" stroke="#1a5490" stroke-width="1"/>
    
    <rect x="70" y="50" width="15" height="15" fill="#87ceeb" stroke="#1a5490" stroke-width="1.5"/>
    <line x1="77.5" y1="50" x2="77.5" y2="65" stroke="#1a5490" stroke-width="1"/>
    <line x1="70" y1="57.5" x2="85" y2="57.5" stroke="#1a5490" stroke-width="1"/>
  </g>
  
  <!-- Key symbol (overlapping bottom right) -->
  <g transform="translate(90, 110)">
    <!-- Key shaft -->
    <rect x="0" y="8" width="45" height="8" rx="4" fill="#e8b923" stroke="#1a5490" stroke-width="1.5"/>
    
    <!-- Key head (circle) -->
    <circle cx="8" cy="12" r="12" fill="#e8b923" stroke="#1a5490" stroke-width="1.5"/>
    
    <!-- Key teeth -->
    <rect x="42" y="10" width="5" height="4" fill="#e8b923" stroke="#1a5490" stroke-width="1"/>
  </g>
</svg>
